<?xml version="1.0" standalone="no"?><!DOCTYPE svg PUBLIC "-//W3C//DTD SVG 1.1//EN" "http://www.w3.org/Graphics/SVG/1.1/DTD/svg11.dtd"><svg t="1533027670806" class="icon" style="" viewBox="0 0 1024 1024" version="1.1" xmlns="http://www.w3.org/2000/svg" p-id="1016" xmlns:xlink="http://www.w3.org/1999/xlink" width="128" height="128"><defs><style type="text/css"></style></defs><path d="M883.70023 429.609195h-0.941609c-16.713563-0.470805-29.896092-14.477241-29.425288-31.308505 3.884138-131.589885-127.588046-138.651954-133.12-138.887357-16.713563-0.706207-29.778391-14.830345-29.072184-31.661609 0.706207-16.713563 14.712644-30.013793 31.66161-29.072184 68.148966 2.824828 195.854713 48.610575 191.264367 201.386667-0.588506 16.478161-14.006437 29.542989-30.366896 29.542988z m0 0" p-id="1017" fill="#ffffff"></path><path d="M985.747126 429.609195c-16.831264 0-30.366897-13.653333-30.366896-30.366896 0-237.285517-224.456092-240.581149-233.989885-240.698851-16.713563 0-30.366897-13.653333-30.366897-30.366896s13.535632-30.366897 30.249196-30.366897h0.117701c6.708966 0 129.353563 1.177011 215.04 86.745747 52.847816 52.730115 79.565977 124.88092 79.565977 214.686897 0 8.003678-3.177931 15.771954-8.827586 21.421609-5.649655 5.767356-13.30023 8.945287-21.42161 8.945287zM826.144368 547.310345c-0.470805 0-0.941609 0.117701-1.412414 0.117701-28.365977-146.184828-156.895632-256.470805-311.31954-256.470805-154.541609 0-283.071264 110.521379-311.31954 256.706207-2.00092 0-3.884138-0.353103-5.767357-0.353103C91.924598 547.310345 7.297471 631.81977 7.297471 736.22069S91.924598 925.131034 196.207816 925.131034H429.609195V787.656092c-67.56046-31.661609-114.523218-100.045977-114.523218-179.611954 0-62.617011 29.072184-118.407356 74.387126-154.777012 2.236322-0.588506 40.136092-8.945287 40.136092 27.542069v137.239541s8.474483 25.894253 31.543908 25.894253h107.931954s26.718161-5.649655 26.718161-27.542069V481.986207s11.063908-45.550345 50.964598-20.597701c39.90069 36.251954 65.088736 88.511264 65.088736 146.655632 0 80.154483-47.668966 149.009655-116.053334 180.318161V925.131034h234.813793v-0.235402c102.282299-2.471724 184.437701-85.921839 184.437702-188.674942 0-104.40092-84.627126-188.910345-188.910345-188.910345z m0 0" p-id="1018" fill="#ffffff"></path></svg>